<svg version="1.1" id="Layer_1" xmlns="http://www.w3.org/2000/svg" xmlns:xlink="http://www.w3.org/1999/xlink" x="0px" y="0px"
	 width="100%" viewBox="0 0 184 184" enable-background="new 0 0 184 184" xml:space="preserve">
<path fill="#000000" opacity="1.000000" stroke="none" 
	d="
M185.000000,73.000000 
	C185.000000,110.666664 185.000000,147.833328 185.000000,185.000000 
	C123.666664,185.000000 62.333332,185.000000 1.000000,185.000000 
	C1.000000,123.666664 1.000000,62.333332 1.000000,1.000000 
	C62.333332,1.000000 123.666664,1.000000 185.000000,1.000000 
	C185.000000,24.833334 185.000000,48.666668 185.000000,73.000000 
M63.736053,176.873215 
	C79.147415,182.280731 95.176300,182.873459 110.768616,179.658051 
	C138.265457,173.987701 158.869858,158.117661 171.942291,133.059799 
	C181.062622,115.577492 182.923889,96.885429 180.041962,77.628265 
	C176.836044,56.206131 166.661377,38.668167 150.180161,24.630785 
	C129.038147,6.623711 104.579788,0.980059 77.579819,4.972645 
	C56.343601,8.112923 38.941597,18.208338 24.934130,34.487991 
	C6.678922,55.704426 0.566539,80.350746 5.071849,107.453659 
	C10.749882,141.611420 30.764364,164.351181 63.736053,176.873215 
M166.342453,23.228294 
	C167.634705,22.226006 169.211685,21.439299 170.164917,20.180321 
	C172.843887,16.642147 172.833130,12.748676 170.452911,9.100385 
	C167.721786,4.914276 163.301163,4.033807 159.005768,5.293423 
	C155.290314,6.382977 152.816681,9.142282 152.918182,13.785764 
	C153.085648,21.446325 156.814682,24.538969 166.342453,23.228294 
z"/>
<path fill="#00529B" opacity="1.000000" stroke="none" 
	d="
M63.378517,176.694122 
	C30.764364,164.351181 10.749882,141.611420 5.071849,107.453659 
	C0.566539,80.350746 6.678922,55.704426 24.934130,34.487991 
	C38.941597,18.208338 56.343601,8.112923 77.579819,4.972645 
	C104.579788,0.980059 129.038147,6.623711 150.180161,24.630785 
	C166.661377,38.668167 176.836044,56.206131 180.041962,77.628265 
	C182.923889,96.885429 181.062622,115.577492 171.942291,133.059799 
	C158.869858,158.117661 138.265457,173.987701 110.768616,179.658051 
	C95.176300,182.873459 79.147415,182.280731 63.378517,176.694122 
M126.869987,72.007507 
	C115.194603,74.067154 109.415062,79.285034 107.179962,89.784027 
	C105.694962,96.759583 109.615028,108.221138 115.289299,111.546654 
	C125.852638,117.737488 136.409576,118.416145 146.741379,109.356972 
	C146.848724,111.615799 146.941101,113.203865 146.996536,114.793205 
	C147.161713,119.529121 146.280960,123.899521 141.309113,125.801308 
	C135.706436,127.944382 128.772644,128.965363 124.893211,124.734215 
	C119.741280,119.115204 114.610153,121.852654 108.803787,121.052849 
	C110.311630,127.156067 112.917229,131.854080 118.415260,132.800110 
	C126.153046,134.131577 134.243149,135.499710 141.923782,134.612289 
	C154.880554,133.115250 159.292023,126.212280 159.800568,116.939804 
	C160.547211,103.326683 159.998566,89.641800 159.954544,75.987648 
	C159.951584,75.065521 159.552368,74.144676 159.330734,73.194458 
	C155.606125,73.194458 152.138535,73.194458 148.426056,73.194458 
	C148.105530,74.818954 147.812271,76.305145 147.486359,77.956940 
	C138.280365,71.995331 138.280365,71.995331 126.869987,72.007507 
M48.000408,78.670822 
	C48.000408,96.929543 48.000408,115.188263 48.000408,133.539993 
	C52.677780,133.539993 56.693741,133.539993 61.000000,133.539993 
	C61.000000,129.595886 61.000000,126.109772 61.000000,122.623665 
	C61.000000,119.225327 61.000000,115.826988 61.000000,111.730537 
	C72.579475,122.536102 85.379967,120.234268 93.272057,112.914619 
	C101.089493,105.664200 103.342339,91.775597 96.733803,81.633286 
	C93.807480,77.142174 89.621140,73.744881 84.121231,72.610916 
	C75.733551,70.881569 67.863342,71.626266 61.343220,78.884834 
	C61.055672,76.398842 60.885586,74.928352 60.689884,73.236427 
	C56.647320,73.236427 52.706810,73.236427 48.374519,73.236427 
	C48.241493,74.833069 48.121510,76.273170 48.000408,78.670822 
M38.000000,106.461189 
	C38.000000,95.392250 38.000000,84.323311 38.000000,73.429497 
	C33.150856,73.429497 29.248091,73.429497 25.382195,73.429497 
	C25.382195,88.096405 25.382195,102.330780 25.382195,116.657051 
	C29.672474,116.657051 33.576752,116.657051 38.000000,116.657051 
	C38.000000,113.367706 38.000000,110.405975 38.000000,106.461189 
M27.799536,65.980759 
	C31.041805,65.980759 34.284073,65.980759 37.549927,65.980759 
	C37.549927,62.637440 37.549927,59.971451 37.549927,57.353889 
	C33.219601,57.353889 29.340460,57.353889 24.149546,57.353889 
	C25.199474,60.654633 26.038486,63.292301 27.799536,65.980759 
z"/>
<path fill="#00529B" opacity="1.000000" stroke="none" 
	d="
M166.017639,23.461941 
	C156.814682,24.538969 153.085648,21.446325 152.918182,13.785764 
	C152.816681,9.142282 155.290314,6.382977 159.005768,5.293423 
	C163.301163,4.033807 167.721786,4.914276 170.452911,9.100385 
	C172.833130,12.748676 172.843887,16.642147 170.164917,20.180321 
	C169.211685,21.439299 167.634705,22.226006 166.017639,23.461941 
z"/>
<path fill="#000000" opacity="1.000000" stroke="none" 
	d="
M127.323654,72.004807 
	C138.280365,71.995331 138.280365,71.995331 147.486359,77.956940 
	C147.812271,76.305145 148.105530,74.818954 148.426056,73.194458 
	C152.138535,73.194458 155.606125,73.194458 159.330734,73.194458 
	C159.552368,74.144676 159.951584,75.065521 159.954544,75.987648 
	C159.998566,89.641800 160.547211,103.326683 159.800568,116.939804 
	C159.292023,126.212280 154.880554,133.115250 141.923782,134.612289 
	C134.243149,135.499710 126.153046,134.131577 118.415260,132.800110 
	C112.917229,131.854080 110.311630,127.156067 108.803787,121.052849 
	C114.610153,121.852654 119.741280,119.115204 124.893211,124.734215 
	C128.772644,128.965363 135.706436,127.944382 141.309113,125.801308 
	C146.280960,123.899521 147.161713,119.529121 146.996536,114.793205 
	C146.941101,113.203865 146.848724,111.615799 146.741379,109.356972 
	C136.409576,118.416145 125.852638,117.737488 115.289299,111.546654 
	C109.615028,108.221138 105.694962,96.759583 107.179962,89.784027 
	C109.415062,79.285034 115.194603,74.067154 127.323654,72.004807 
M144.571289,85.068993 
	C140.570206,81.076080 135.519272,80.474113 130.336487,81.136475 
	C124.472260,81.885925 121.389954,85.102966 120.134193,90.921013 
	C119.061195,95.892288 121.232285,102.619400 124.619781,104.819580 
	C129.703522,108.121460 139.290756,107.838509 143.224609,104.270500 
	C147.768631,100.149063 148.589615,91.990334 144.571289,85.068993 
z"/>
<path fill="#000000" opacity="1.000000" stroke="none" 
	d="
M48.000965,78.192047 
	C48.121510,76.273170 48.241493,74.833069 48.374519,73.236427 
	C52.706810,73.236427 56.647320,73.236427 60.689884,73.236427 
	C60.885586,74.928352 61.055672,76.398842 61.343220,78.884834 
	C67.863342,71.626266 75.733551,70.881569 84.121231,72.610916 
	C89.621140,73.744881 93.807480,77.142174 96.733803,81.633286 
	C103.342339,91.775597 101.089493,105.664200 93.272057,112.914619 
	C85.379967,120.234268 72.579475,122.536102 61.000000,111.730537 
	C61.000000,115.826988 61.000000,119.225327 61.000000,122.623665 
	C61.000000,126.109772 61.000000,129.595886 61.000000,133.539993 
	C56.693741,133.539993 52.677780,133.539993 48.000408,133.539993 
	C48.000408,115.188263 48.000408,96.929543 48.000965,78.192047 
M61.000523,94.631821 
	C61.465668,97.357750 61.257801,100.456345 62.522163,102.739731 
	C66.312996,109.585831 75.325188,111.036728 82.267883,106.371635 
	C87.168114,103.078964 89.012367,92.117126 85.510406,87.098824 
	C82.461021,82.729065 75.481361,80.652519 69.354675,82.292282 
	C64.330513,83.636948 61.507671,87.513084 61.000523,94.631821 
z"/>
<path fill="#000000" opacity="1.000000" stroke="none" 
	d="
M38.000000,106.952721 
	C38.000000,110.405975 38.000000,113.367706 38.000000,116.657051 
	C33.576752,116.657051 29.672474,116.657051 25.382195,116.657051 
	C25.382195,102.330780 25.382195,88.096405 25.382195,73.429497 
	C29.248091,73.429497 33.150856,73.429497 38.000000,73.429497 
	C38.000000,84.323311 38.000000,95.392250 38.000000,106.952721 
z"/>
<path fill="#000000" opacity="1.000000" stroke="none" 
	d="
M27.338516,65.955368 
	C26.038486,63.292301 25.199474,60.654633 24.149546,57.353889 
	C29.340460,57.353889 33.219601,57.353889 37.549927,57.353889 
	C37.549927,59.971451 37.549927,62.637440 37.549927,65.980759 
	C34.284073,65.980759 31.041805,65.980759 27.338516,65.955368 
z"/>
<path fill="#00529B" opacity="1.000000" stroke="none" 
	d="
M144.834656,85.360931 
	C148.589615,91.990334 147.768631,100.149063 143.224609,104.270500 
	C139.290756,107.838509 129.703522,108.121460 124.619781,104.819580 
	C121.232285,102.619400 119.061195,95.892288 120.134193,90.921013 
	C121.389954,85.102966 124.472260,81.885925 130.336487,81.136475 
	C135.519272,80.474113 140.570206,81.076080 144.834656,85.360931 
z"/>
<path fill="#00529B" opacity="1.000000" stroke="none" 
	d="
M61.001118,94.196915 
	C61.507671,87.513084 64.330513,83.636948 69.354675,82.292282 
	C75.481361,80.652519 82.461021,82.729065 85.510406,87.098824 
	C89.012367,92.117126 87.168114,103.078964 82.267883,106.371635 
	C75.325188,111.036728 66.312996,109.585831 62.522163,102.739731 
	C61.257801,100.456345 61.465668,97.357750 61.001118,94.196915 
z"/>
</svg>