<?xml version="1.0" encoding="UTF-8"?>
<!DOCTYPE svg PUBLIC "-//W3C//DTD SVG 1.1//EN" "http://www.w3.org/Graphics/SVG/1.1/DTD/svg11.dtd">
<svg xmlns="http://www.w3.org/2000/svg" version="1.1" width="68px" height="66px" style="shape-rendering:geometricPrecision; text-rendering:geometricPrecision; image-rendering:optimizeQuality; fill-rule:evenodd; clip-rule:evenodd" xmlns:xlink="http://www.w3.org/1999/xlink">
<g><path style="opacity:1" fill="#fbfbfb" d="M -0.5,-0.5 C 22.1667,-0.5 44.8333,-0.5 67.5,-0.5C 67.5,21.5 67.5,43.5 67.5,65.5C 44.8333,65.5 22.1667,65.5 -0.5,65.5C -0.5,43.5 -0.5,21.5 -0.5,-0.5 Z"/></g>
<g><path style="opacity:1" fill="#222222" d="M 27.5,2.5 C 51.521,2.02177 63.3543,13.6884 63,37.5C 58.0213,55.4643 46.188,63.631 27.5,62C 10.1012,56.5859 2.26788,44.7525 4,26.5C 7.34904,13.9853 15.1824,5.98533 27.5,2.5 Z"/></g>
<g><path style="opacity:1" fill="#fafafa" d="M 25.5,5.5 C 40.5914,2.90623 51.7581,8.23956 59,21.5C 64.2448,39.8172 58.0781,52.3172 40.5,59C 26.7195,62.0238 16.2195,57.5238 9,45.5C 2.15163,26.8827 7.65163,13.5494 25.5,5.5 Z"/></g>
<g><path style="opacity:1" fill="#828282" d="M 54.5,4.5 C 58.2518,4.50072 59.2518,6.16739 57.5,9.5C 56.4593,7.00866 55.6259,7.00866 55,9.5C 53.2116,7.97686 53.0449,6.3102 54.5,4.5 Z"/></g>
<g><path style="opacity:1" fill="#121212" d="M 15.5,20.5 C 15.5,21.5 15.5,22.5 15.5,23.5C 14.1667,23.5 12.8333,23.5 11.5,23.5C 11.5,22.5 11.5,21.5 11.5,20.5C 12.8333,20.5 14.1667,20.5 15.5,20.5 Z"/></g>
<g><path style="opacity:1" fill="#5f5f5f" d="M 15.5,20.5 C 16.4345,21.5676 16.7678,22.901 16.5,24.5C 14.5853,24.7845 12.9187,24.4511 11.5,23.5C 12.8333,23.5 14.1667,23.5 15.5,23.5C 15.5,22.5 15.5,21.5 15.5,20.5 Z"/></g>
<g><path style="opacity:1" fill="#030303" d="M 11.5,26.5 C 12.8333,26.5 14.1667,26.5 15.5,26.5C 15.5,31.1667 15.5,35.8333 15.5,40.5C 14.1667,40.5 12.8333,40.5 11.5,40.5C 11.5,35.8333 11.5,31.1667 11.5,26.5 Z"/></g>
<g><path style="opacity:1" fill="#717171" d="M 11.5,26.5 C 12.9187,25.5489 14.5853,25.2155 16.5,25.5C 16.8205,30.6946 16.4872,35.6946 15.5,40.5C 15.5,35.8333 15.5,31.1667 15.5,26.5C 14.1667,26.5 12.8333,26.5 11.5,26.5 Z"/></g>
<g><path style="opacity:1" fill="#808080" d="M 23.5,26.5 C 22.1667,26.5 20.8333,26.5 19.5,26.5C 19.5,33.1667 19.5,39.8333 19.5,46.5C 18.5088,39.6866 18.1755,32.6866 18.5,25.5C 20.4147,25.2155 22.0813,25.5489 23.5,26.5 Z"/></g>
<g><path style="opacity:1" fill="#111111" d="M 19.5,46.5 C 19.5,39.8333 19.5,33.1667 19.5,26.5C 20.8333,26.5 22.1667,26.5 23.5,26.5C 24.0778,27.547 24.7445,27.3803 25.5,26C 31.6294,24.5607 35.2961,26.8941 36.5,33C 35.1318,40.9332 30.9651,43.0998 24,39.5C 23.5034,41.8098 23.3367,44.1432 23.5,46.5C 22.1667,46.5 20.8333,46.5 19.5,46.5 Z"/></g>
<g><path style="opacity:1" fill="#101010" d="M 42.5,25.5 C 45.6021,25.154 48.4355,25.8207 51,27.5C 52.3561,26.6198 53.8561,26.2865 55.5,26.5C 55.666,31.8437 55.4994,37.1771 55,42.5C 52.8994,45.5451 49.8994,46.8784 46,46.5C 42.4489,47.1117 39.9489,45.7784 38.5,42.5C 39.3333,42.1667 40.1667,41.8333 41,41.5C 43,42.1667 45,42.8333 47,43.5C 50.2545,43.2547 51.5879,41.588 51,38.5C 41.7399,42.5356 37.7399,39.5356 39,29.5C 39.6897,27.6498 40.8564,26.3164 42.5,25.5 Z"/></g>
<g><path style="opacity:1" fill="#f4f4f4" d="M 24.5,29.5 C 31.536,28.6026 33.2027,31.1026 29.5,37C 23.7853,37.401 22.1187,34.901 24.5,29.5 Z"/></g>
<g><path style="opacity:1" fill="#e3e3e3" d="M 43.5,29.5 C 45.5273,29.3379 47.5273,29.5045 49.5,30C 51.6201,31.5227 51.9535,33.3561 50.5,35.5C 46.4899,38.6669 43.8232,37.8335 42.5,33C 42.6483,31.7441 42.9816,30.5774 43.5,29.5 Z"/></g>
</svg>
